name Walk4.mot
datacolumns 19
datarows 30
range 1.76000000 1.90500000
endheader

                time	   L_ground_force_vx	   L_ground_force_vy	   L_ground_force_vz	   L_ground_force_px	   L_ground_force_py	   L_ground_force_pz	   R_ground_force_vx	   R_ground_force_vy	   R_ground_force_vz	   R_ground_force_px	   R_ground_force_py	   R_ground_force_pz	   L_ground_torque_x	   L_ground_torque_y	   L_ground_torque_z	   R_ground_torque_x	   R_ground_torque_y	   R_ground_torque_z	
          1.76000000	          0.04396813	          0.15529411	         -0.00387061	         -0.00040477	          0.00000000	         -0.00008718	        -32.47795130	        557.59778203	        -37.81734859	          0.13107565	          0.00000000	          0.06377220	          0.00000000	         -0.00018117	          0.00000000	          0.00000000	          1.48993931	          0.00000000	
          1.76500000	          0.03459121	          0.12413342	         -0.00300377	         -0.00045151	          0.00000000	         -0.00009915	        -31.00145587	        559.15929585	        -37.73466977	          0.13317154	          0.00000000	          0.06326574	          0.00000000	         -0.00004403	          0.00000000	          0.00000000	          1.61115040	          0.00000000	
          1.77000000	          0.02584223	          0.09433322	         -0.00221031	         -0.00044578	          0.00000000	         -0.00009898	        -29.50785585	        561.34119796	        -37.64091911	          0.13522415	          0.00000000	          0.06272273	          0.00000000	          0.00004740	          0.00000000	          0.00000000	          1.73706779	          0.00000000	
          1.77500000	          0.01818787	          0.06776231	         -0.00152668	         -0.00040684	          0.00000000	         -0.00009105	        -28.00725841	        564.20785320	        -37.52933279	          0.13722553	          0.00000000	          0.06214736	          0.00000000	          0.00010228	          0.00000000	          0.00000000	          1.86735704	          0.00000000	
          1.78000000	          0.01184084	          0.04536372	         -0.00096753	         -0.00034970	          0.00000000	         -0.00007876	        -26.51502537	        567.80728928	        -37.39405382	          0.13917107	          0.00000000	          0.06154529	          0.00000000	          0.00012939	          0.00000000	          0.00000000	          2.00133585	          0.00000000	
          1.78500000	          0.00683414	          0.02741222	         -0.00053244	         -0.00028540	          0.00000000	         -0.00006465	        -25.04944200	        572.15274754	        -37.23303056	          0.14105801	          0.00000000	          0.06092230	          0.00000000	          0.00013653	          0.00000000	          0.00000000	          2.13785352	          0.00000000	
          1.79000000	          0.00308294	          0.01373229	         -0.00021132	         -0.00022159	          0.00000000	         -0.00005049	        -23.62786644	        577.21379941	        -37.05063242	          0.14288830	          0.00000000	          0.06028541	          0.00000000	          0.00013032	          0.00000000	          0.00000000	          2.27547350	          0.00000000	
          1.79500000	          0.00043355	          0.00387356	          0.00001132	         -0.00016315	          0.00000000	         -0.00003742	        -22.26407841	        582.91686686	        -36.85861864	          0.14467066	          0.00000000	          0.05964217	          0.00000000	          0.00011603	          0.00000000	          0.00000000	          2.41253688	          0.00000000	
          1.80000000	         -0.00129974	         -0.00275500	          0.00015320	         -0.00011277	          0.00000000	         -0.00002607	        -20.96885692	        589.15247355	        -36.67449269	          0.14641758	          0.00000000	          0.05899951	          0.00000000	          0.00009769	          0.00000000	          0.00000000	          2.54728118	          0.00000000	
          1.80500000	         -0.00230847	         -0.00678788	          0.00023207	         -0.00007154	          0.00000000	         -0.00001674	        -19.75110129	        595.78610979	        -36.51904251	          0.14814330	          0.00000000	          0.05836357	          0.00000000	          0.00007820	          0.00000000	          0.00000000	          2.67784870	          0.00000000	
          1.81000000	         -0.00277278	         -0.00883725	          0.00026430	         -0.00003944	          0.00000000	         -0.00000942	        -18.61807667	        602.66798199	        -36.41359081	          0.14986291	          0.00000000	          0.05773740	          0.00000000	          0.00005952	          0.00000000	          0.00000000	          2.80212130	          0.00000000	
          1.81500000	         -0.00285124	         -0.00945256	          0.00026406	         -0.00001574	          0.00000000	         -0.00000399	        -17.57540849	        609.64357778	        -36.37762196	          0.15159078	          0.00000000	          0.05712067	          0.00000000	          0.00004283	          0.00000000	          0.00000000	          2.91776325	          0.00000000	
          1.82000000	         -0.00267606	         -0.00909955	          0.00024302	          0.00000070	          0.00000000	         -0.00000019	        -16.62674563	        616.56751852	        -36.42758576	          0.15333896	          0.00000000	          0.05651112	          0.00000000	          0.00002874	          0.00000000	          0.00000000	          3.02245961	          0.00000000	
          1.82500000	         -0.00235207	         -0.00815352	          0.00021031	          0.00001119	          0.00000000	          0.00000226	        -15.77254129	        623.31897980	        -36.57538510	          0.15511638	          0.00000000	          0.05590537	          0.00000000	          0.00001743	          0.00000000	          0.00000000	          3.11410953	          0.00000000	
          1.83000000	         -0.00195828	         -0.00690199	          0.00017270	          0.00001704	          0.00000000	          0.00000365	        -15.00837758	        629.81413182	        -36.82818681	          0.15692832	          0.00000000	          0.05530047	          0.00000000	          0.00000880	          0.00000000	          0.00000000	          3.19114587	          0.00000000	
          1.83500000	         -0.00155088	         -0.00555355	          0.00013492	          0.00001943	          0.00000000	          0.00000426	        -14.32354861	        636.01342040	        -37.18875767	          0.15877851	          0.00000000	          0.05469435	          0.00000000	          0.00000257	          0.00000000	          0.00000000	          3.25283055	          0.00000000	
          1.84000000	         -0.00116696	         -0.00424961	          0.00010003	          0.00001944	          0.00000000	          0.00000431	        -13.70166602	        641.92020178	        -37.65489899	          0.16067035	          0.00000000	          0.05408656	          0.00000000	         -0.00000163	          0.00000000	          0.00000000	          3.29873341	          0.00000000	
          1.84500000	         -0.00082847	         -0.00307732	          0.00006974	          0.00001790	          0.00000000	          0.00000400	        -13.12069546	        647.57064517	        -38.21948813	          0.16260501	          0.00000000	          0.05347794	          0.00000000	         -0.00000419	          0.00000000	          0.00000000	          3.32838480	          0.00000000	
          1.85000000	         -0.00054588	         -0.00208217	          0.00004480	          0.00001550	          0.00000000	          0.00000349	        -12.55261400	        653.02387688	        -38.87160468	          0.16457921	          0.00000000	          0.05286911	          0.00000000	         -0.00000550	          0.00000000	          0.00000000	          3.34160406	          0.00000000	
          1.85500000	         -0.00032149	         -0.00127933	          0.00002526	          0.00001273	          0.00000000	          0.00000288	        -11.96448908	        658.35417652	        -39.59745821	          0.16658488	          0.00000000	          0.05226115	          0.00000000	         -0.00000591	          0.00000000	          0.00000000	          3.33890353	          0.00000000	
          1.86000000	         -0.00015217	         -0.00066331	          0.00001074	          0.00000995	          0.00000000	          0.00000227	        -11.32127895	        663.64504912	        -40.38051568	          0.16861058	          0.00000000	          0.05165663	          0.00000000	         -0.00000570	          0.00000000	          0.00000000	          3.32119067	          0.00000000	
          1.86500000	         -0.00003155	         -0.00021580	          0.00000057	          0.00000738	          0.00000000	          0.00000169	        -10.58776028	        668.98229418	        -41.20137812	          0.17064260	          0.00000000	          0.05105906	          0.00000000	         -0.00000512	          0.00000000	          0.00000000	          3.28960732	          0.00000000	
          1.87000000	          0.00004830	          0.00008824	         -0.00000599	          0.00000515	          0.00000000	          0.00000119	         -9.73014542	        674.44667795	        -42.03877776	          0.17266575	          0.00000000	          0.05047100	          0.00000000	         -0.00000434	          0.00000000	          0.00000000	          3.24573907	          0.00000000	
          1.87500000	          0.00009568	          0.00027624	         -0.00000973	          0.00000331	          0.00000000	          0.00000077	         -8.71940688	        680.10707187	        -42.87096399	          0.17466367	          0.00000000	          0.04989368	          0.00000000	         -0.00000350	          0.00000000	          0.00000000	          3.19123409	          0.00000000	
          1.88000000	          0.00011850	          0.00037495	         -0.00001135	          0.00000187	          0.00000000	          0.00000045	         -7.53263322	        686.01307819	        -43.67727455	          0.17661944	          0.00000000	          0.04932855	          0.00000000	         -0.00000268	          0.00000000	          0.00000000	          3.12783165	          0.00000000	
          1.88500000	          0.00012376	          0.00040860	         -0.00001150	          0.00000080	          0.00000000	          0.00000020	         -6.15205290	        692.18935459	        -44.43862803	          0.17851723	          0.00000000	          0.04877700	          0.00000000	         -0.00000194	          0.00000000	          0.00000000	          3.05731963	          0.00000000	
          1.89000000	          0.00011735	          0.00039786	         -0.00001068	          0.00000005	          0.00000000	          0.00000003	         -4.56290023	        698.63390480	        -45.13809659	          0.18034278	          0.00000000	          0.04824028	          0.00000000	         -0.00000132	          0.00000000	          0.00000000	          2.98177985	          0.00000000	
          1.89500000	          0.00010395	          0.00035951	         -0.00000931	         -0.00000044	          0.00000000	         -0.00000009	         -2.75212552	        705.31740391	        -45.76112463	          0.18208365	          0.00000000	          0.04772003	          0.00000000	         -0.00000081	          0.00000000	          0.00000000	          2.90346640	          0.00000000	
          1.90000000	          0.00008714	          0.00030648	         -0.00000770	         -0.00000071	          0.00000000	         -0.00000015	         -0.70799904	        712.18644775	        -46.29543101	          0.18372895	          0.00000000	          0.04721868	          0.00000000	         -0.00000042	          0.00000000	          0.00000000	          2.82436285	          0.00000000	
          1.90500000	          0.00006947	          0.00024824	         -0.00000605	         -0.00000083	          0.00000000	         -0.00000018	          1.57903975	        719.16762755	        -46.73050310	          0.18527029	          0.00000000	          0.04673909	          0.00000000	         -0.00000014	          0.00000000	          0.00000000	          2.74590822	          0.00000000	
